<svg xmlns="http://www.w3.org/2000/svg" viewBox="0 0 32 32">
  <g>
    <path d="M16,16 L31,16 A15,15 0 0 1 23.5,28.99 Z" fill="#ef4444"/>
    <path d="M16,16 L23.5,28.99 A15,15 0 0 1 8.5,28.99 Z" fill="#f59e0b"/>
    <path d="M16,16 L8.5,28.99 A15,15 0 0 1 1,16 Z" fill="#22c55e"/>
    <path d="M16,16 L1,16 A15,15 0 0 1 8.5,3.01 Z" fill="#06b6d4"/>
    <path d="M16,16 L8.5,3.01 A15,15 0 0 1 23.5,3.01 Z" fill="#3b82f6"/>
    <path d="M16,16 L23.5,3.01 A15,15 0 0 1 31,16 Z" fill="#8b5cf6"/>
    <circle cx="16" cy="16" r="4.5" fill="#0e1320"/>
  </g>
  <polygon points="16,0.5 12.5,7 19.5,7" fill="#f8fafc"/>
</svg>
